<svg width="1440" height="800" viewBox="0 0 1440 800" fill="none" xmlns="http://www.w3.org/2000/svg">
<g clip-path="url(#clip0_172_2)">
<rect width="1440" height="800" fill="#323232"/>
<rect x="1037" y="3" width="400" height="648" fill="#7D8333" stroke="black" stroke-width="6"/>
<mask id="path-2-inside-1_172_2" fill="white">
<path d="M749 654H1440V800H749V654Z"/>
</mask>
<path d="M749 654H1440V800H749V654Z" fill="#F5AB00"/>
<path d="M1440 800V806H1446V800H1440ZM749 800H743V806H749V800ZM1434 654V800H1446V654H1434ZM1440 794H749V806H1440V794ZM755 800V654H743V800H755Z" fill="black" mask="url(#path-2-inside-1_172_2)"/>
<mask id="path-4-inside-2_172_2" fill="white">
<path d="M749 0H1034V654H749V0Z"/>
</mask>
<path d="M749 0H1034V654H749V0Z" fill="#F49DB5"/>
<path d="M749 0V-6H743V0H749ZM749 654H743V660H749V654ZM749 6H1034V-6H749V6ZM1034 648H749V660H1034V648ZM755 654V0H743V654H755Z" fill="black" mask="url(#path-4-inside-2_172_2)"/>
<mask id="path-6-inside-3_172_2" fill="white">
<path d="M0 0H749V800H0V0Z"/>
</mask>
<path d="M0 0H749V800H0V0Z" fill="white"/>
<path d="M0 0V-6H-6V0H0ZM0 800H-6V806H0V800ZM0 6H749V-6H0V6ZM749 794H0V806H749V794ZM6 800V0H-6V800H6Z" fill="black" mask="url(#path-6-inside-3_172_2)"/>
</g>
<defs>
<clipPath id="clip0_172_2">
<rect width="1440" height="800" fill="white"/>
</clipPath>
</defs>
</svg>
